<svg width="96" height="96" viewBox="0 0 96 96" fill="none" xmlns="http://www.w3.org/2000/svg">
<path d="M26.5312 19.6541C26.5312 16.3403 29.2175 13.6541 32.5312 13.6541H63.4013C66.715 13.6541 69.4013 16.3403 69.4013 19.6541V72.346C69.4013 75.6597 66.715 78.346 63.4013 78.346H32.5313C29.2175 78.346 26.5312 75.6597 26.5312 72.346V19.6541Z" fill="#74421F"/>
<path fill-rule="evenodd" clip-rule="evenodd" d="M32.5312 11.6541H63.4013C67.8195 11.6541 71.4013 15.2358 71.4013 19.6541V72.346C71.4013 76.7643 67.8195 80.346 63.4013 80.346H32.5313C28.113 80.346 24.5312 76.7643 24.5312 72.346V19.6541C24.5312 15.2358 28.113 11.6541 32.5312 11.6541ZM32.5312 13.6541C29.2175 13.6541 26.5312 16.3403 26.5312 19.6541V72.346C26.5312 75.6597 29.2175 78.346 32.5313 78.346H63.4013C66.715 78.346 69.4013 75.6597 69.4013 72.346V19.6541C69.4013 16.3403 66.715 13.6541 63.4013 13.6541H32.5312Z" fill="#3F1E07"/>
<path d="M29.4998 19C29.4998 17.8954 30.3952 17 31.4998 17H38.3748C39.4793 17 40.3748 17.8954 40.3748 19V23C40.3748 24.1046 39.4793 25 38.3748 25H31.4998C30.3952 25 29.4998 24.1046 29.4998 23V19Z" fill="#A66335"/>
<path d="M29.4998 29.5C29.4998 28.3954 30.3952 27.5 31.4998 27.5H38.3748C39.4793 27.5 40.3748 28.3954 40.3748 29.5V33.5C40.3748 34.6046 39.4793 35.5 38.3748 35.5H31.4998C30.3952 35.5 29.4998 34.6046 29.4998 33.5V29.5Z" fill="#A66335"/>
<path d="M29.4998 40C29.4998 38.8954 30.3952 38 31.4998 38H38.3748C39.4793 38 40.3748 38.8954 40.3748 40V44C40.3748 45.1046 39.4793 46 38.3748 46H31.4998C30.3952 46 29.4998 45.1046 29.4998 44V40Z" fill="#A66335"/>
<path d="M29.4998 50.5C29.4998 49.3954 30.3952 48.5 31.4998 48.5H38.3748C39.4793 48.5 40.3748 49.3954 40.3748 50.5V54.5C40.3748 55.6046 39.4793 56.5 38.3748 56.5H31.4998C30.3952 56.5 29.4998 55.6046 29.4998 54.5V50.5Z" fill="#A66335"/>
<path d="M42.5623 19C42.5623 17.8954 43.4577 17 44.5623 17H51.4373C52.5418 17 53.4373 17.8954 53.4373 19V23C53.4373 24.1046 52.5418 25 51.4373 25H44.5623C43.4577 25 42.5623 24.1046 42.5623 23V19Z" fill="#A66335"/>
<path d="M42.5623 29.5C42.5623 28.3954 43.4577 27.5 44.5623 27.5H51.4373C52.5418 27.5 53.4373 28.3954 53.4373 29.5V33.5C53.4373 34.6046 52.5418 35.5 51.4373 35.5H44.5623C43.4577 35.5 42.5623 34.6046 42.5623 33.5V29.5Z" fill="#A66335"/>
<path d="M42.5623 40C42.5623 38.8954 43.4577 38 44.5623 38H51.4373C52.5418 38 53.4373 38.8954 53.4373 40V44C53.4373 45.1046 52.5418 46 51.4373 46H44.5623C43.4577 46 42.5623 45.1046 42.5623 44V40Z" fill="#A66335"/>
<path d="M42.5623 50.5C42.5623 49.3954 43.4577 48.5 44.5623 48.5H51.4373C52.5418 48.5 53.4373 49.3954 53.4373 50.5V54.5C53.4373 55.6046 52.5418 56.5 51.4373 56.5H44.5623C43.4577 56.5 42.5623 55.6046 42.5623 54.5V50.5Z" fill="#A66335"/>
<path d="M55.6252 19C55.6252 17.8954 56.5207 17 57.6252 17H64.5002C65.6048 17 66.5002 17.8954 66.5002 19V23C66.5002 24.1046 65.6048 25 64.5002 25H57.6252C56.5207 25 55.6252 24.1046 55.6252 23V19Z" fill="#A66335"/>
<path d="M55.6252 29.5C55.6252 28.3954 56.5207 27.5 57.6252 27.5H64.5002C65.6048 27.5 66.5002 28.3954 66.5002 29.5V33.5C66.5002 34.6046 65.6048 35.5 64.5002 35.5H57.6252C56.5207 35.5 55.6252 34.6046 55.6252 33.5V29.5Z" fill="#A66335"/>
<path d="M55.6252 40C55.6252 38.8954 56.5207 38 57.6252 38H64.5002C65.6048 38 66.5002 38.8954 66.5002 40V44C66.5002 45.1046 65.6048 46 64.5002 46H57.6252C56.5207 46 55.6252 45.1046 55.6252 44V40Z" fill="#A66335"/>
<path d="M55.6252 50.5C55.6252 49.3954 56.5207 48.5 57.6252 48.5H64.5002C65.6048 48.5 66.5002 49.3954 66.5002 50.5V54.5C66.5002 55.6046 65.6048 56.5 64.5002 56.5H57.6252C56.5207 56.5 55.6252 55.6046 55.6252 54.5V50.5Z" fill="#A66335"/>
<path fill-rule="evenodd" clip-rule="evenodd" d="M30.625 29.875C30.625 29.3227 31.0727 28.875 31.625 28.875H35.5625C36.1148 28.875 36.5625 29.3227 36.5625 29.875C36.5625 30.4273 36.1148 30.875 35.5625 30.875H31.625C31.0727 30.875 30.625 30.4273 30.625 29.875Z" fill="#CF814B"/>
<path fill-rule="evenodd" clip-rule="evenodd" d="M43.9375 18.9688C43.9375 18.4165 44.3852 17.9688 44.9375 17.9688H48.875C49.4273 17.9688 49.875 18.4165 49.875 18.9688C49.875 19.521 49.4273 19.9688 48.875 19.9688H44.9375C44.3852 19.9688 43.9375 19.521 43.9375 18.9688Z" fill="#CF814B"/>
<path fill-rule="evenodd" clip-rule="evenodd" d="M56.6875 18.9688C56.6875 18.4165 57.1352 17.9688 57.6875 17.9688H61.625C62.1773 17.9688 62.625 18.4165 62.625 18.9688C62.625 19.521 62.1773 19.9688 61.625 19.9688H57.6875C57.1352 19.9688 56.6875 19.521 56.6875 18.9688Z" fill="#CF814B"/>
<path fill-rule="evenodd" clip-rule="evenodd" d="M30.625 18.9688C30.625 18.4165 31.0727 17.9688 31.625 17.9688H35.5625C36.1148 17.9688 36.5625 18.4165 36.5625 18.9688C36.5625 19.521 36.1148 19.9688 35.5625 19.9688H31.625C31.0727 19.9688 30.625 19.521 30.625 18.9688Z" fill="#CF814B"/>
<path fill-rule="evenodd" clip-rule="evenodd" d="M38.75 41.5781C39.3023 41.5781 39.75 42.0258 39.75 42.5781V43.4688C39.75 44.5733 38.8546 45.4688 37.75 45.4688H35.9375C35.3852 45.4688 34.9375 45.021 34.9375 44.4688C34.9375 43.9165 35.3852 43.4688 35.9375 43.4688H37.75V42.5781C37.75 42.0258 38.1977 41.5781 38.75 41.5781Z" fill="#965224"/>
<path fill-rule="evenodd" clip-rule="evenodd" d="M38.75 52.0547C39.3023 52.0547 39.75 52.5024 39.75 53.0547V53.9453C39.75 55.0499 38.8546 55.9453 37.75 55.9453H35.9375C35.3852 55.9453 34.9375 55.4976 34.9375 54.9453C34.9375 54.393 35.3852 53.9453 35.9375 53.9453H37.75V53.0547C37.75 52.5024 38.1977 52.0547 38.75 52.0547Z" fill="#965224"/>
<path fill-rule="evenodd" clip-rule="evenodd" d="M51.7188 52.2422C52.271 52.2422 52.7188 52.6899 52.7188 53.2422V54.1328C52.7188 55.2374 51.8233 56.1328 50.7188 56.1328H48.9062C48.354 56.1328 47.9062 55.6851 47.9062 55.1328C47.9062 54.5805 48.354 54.1328 48.9062 54.1328H50.7188V53.2422C50.7188 52.6899 51.1665 52.2422 51.7188 52.2422Z" fill="#965224"/>
<path fill-rule="evenodd" clip-rule="evenodd" d="M51.7188 41.5781C52.271 41.5781 52.7188 42.0258 52.7188 42.5781V43.4688C52.7188 44.5733 51.8233 45.4688 50.7188 45.4688H48.9062C48.354 45.4688 47.9062 45.021 47.9062 44.4688C47.9062 43.9165 48.354 43.4688 48.9062 43.4688H50.7188V42.5781C50.7188 42.0258 51.1665 41.5781 51.7188 41.5781Z" fill="#965224"/>
<path fill-rule="evenodd" clip-rule="evenodd" d="M64.9688 41.5781C65.521 41.5781 65.9688 42.0258 65.9688 42.5781V43.4688C65.9688 44.5733 65.0733 45.4688 63.9688 45.4688H62.1562C61.604 45.4688 61.1562 45.021 61.1562 44.4688C61.1562 43.9165 61.604 43.4688 62.1562 43.4688H63.9688V42.5781C63.9688 42.0258 64.4165 41.5781 64.9688 41.5781Z" fill="#965224"/>
<path fill-rule="evenodd" clip-rule="evenodd" d="M64.9688 31.1016C65.521 31.1016 65.9688 31.5493 65.9688 32.1016V32.9922C65.9688 34.0968 65.0733 34.9922 63.9688 34.9922H62.1562C61.604 34.9922 61.1562 34.5445 61.1562 33.9922C61.1562 33.4399 61.604 32.9922 62.1562 32.9922H63.9688V32.1016C63.9688 31.5493 64.4165 31.1016 64.9688 31.1016Z" fill="#965224"/>
<path fill-rule="evenodd" clip-rule="evenodd" d="M51.7188 30.9146C52.271 30.9146 52.7188 31.3623 52.7188 31.9146V32.8052C52.7188 33.9097 51.8233 34.8052 50.7188 34.8052H48.9062C48.354 34.8052 47.9062 34.3575 47.9062 33.8052C47.9062 33.2529 48.354 32.8052 48.9062 32.8052H50.7188V31.9146C50.7188 31.3623 51.1665 30.9146 51.7188 30.9146Z" fill="#965224"/>
<path fill-rule="evenodd" clip-rule="evenodd" d="M64.6562 52.0547C65.2085 52.0547 65.6562 52.5024 65.6562 53.0547V53.9453C65.6562 55.0499 64.7608 55.9453 63.6562 55.9453H61.8438C61.2915 55.9453 60.8438 55.4976 60.8438 54.9453C60.8438 54.3931 61.2915 53.9453 61.8438 53.9453H63.6562V53.0547C63.6562 52.5024 64.104 52.0547 64.6562 52.0547Z" fill="#965224"/>
<path d="M23.2812 62.154C23.2812 59.9449 25.0721 58.1541 27.2812 58.1541H69.2812C71.4904 58.1541 73.2812 59.9449 73.2812 62.1541V82.346C73.2812 84.5551 71.4904 86.346 69.2812 86.346H27.2812C25.0721 86.346 23.2812 84.5551 23.2812 82.346V62.154Z" fill="#EE4129"/>
<path fill-rule="evenodd" clip-rule="evenodd" d="M27.2812 56.1541H69.2812C72.595 56.1541 75.2812 58.8403 75.2812 62.1541V82.346C75.2812 85.6597 72.595 88.346 69.2812 88.346H27.2812C23.9675 88.346 21.2812 85.6597 21.2812 82.346V62.154C21.2812 58.8403 23.9675 56.1541 27.2812 56.1541ZM27.2812 58.1541C25.0721 58.1541 23.2812 59.9449 23.2812 62.154V82.346C23.2812 84.5551 25.0721 86.346 27.2812 86.346H69.2812C71.4904 86.346 73.2812 84.5551 73.2812 82.346V62.1541C73.2812 59.9449 71.4904 58.1541 69.2812 58.1541H27.2812Z" fill="#8D1C0D"/>
<path fill-rule="evenodd" clip-rule="evenodd" d="M26 71.125C26.5523 71.125 27 71.5727 27 72.125V81.0625C27 81.6148 27.4477 82.0625 28 82.0625H36.5C37.0523 82.0625 37.5 82.5102 37.5 83.0625C37.5 83.6148 37.0523 84.0625 36.5 84.0625H28C26.3431 84.0625 25 82.7194 25 81.0625V72.125C25 71.5727 25.4477 71.125 26 71.125Z" fill="#FE6955"/>
<path d="M66.5938 81.125C66.5938 82.057 65.8802 82.8125 65 82.8125C64.1198 82.8125 63.4062 82.057 63.4062 81.125C63.4062 80.193 64.1198 79.4375 65 79.4375C65.8802 79.4375 66.5938 80.193 66.5938 81.125Z" fill="#D2220A"/>
<path d="M71.9326 79.7849C71.9326 80.525 71.366 81.125 70.667 81.125C69.968 81.125 69.4014 80.525 69.4014 79.7849C69.4014 79.0448 69.968 78.4448 70.667 78.4448C71.366 78.4448 71.9326 79.0448 71.9326 79.7849Z" fill="#D2220A"/>
<path d="M67.2764 76.0012C67.2764 76.7413 66.7097 77.3413 66.0107 77.3413C65.3118 77.3413 64.7451 76.7413 64.7451 76.0012C64.7451 75.2611 65.3118 74.6611 66.0107 74.6611C66.7097 74.6611 67.2764 75.2611 67.2764 76.0012Z" fill="#D2220A"/>
<path d="M61.1826 80.1887C61.1826 80.9288 60.616 81.5288 59.917 81.5288C59.218 81.5288 58.6514 80.9288 58.6514 80.1887C58.6514 79.4486 59.218 78.8486 59.917 78.8486C60.616 78.8486 61.1826 79.4486 61.1826 80.1887Z" fill="#D2220A"/>
<path d="M53.2139 83.3125C53.2139 84.0526 52.6472 84.6526 51.9482 84.6526C51.2493 84.6526 50.6826 84.0526 50.6826 83.3125C50.6826 82.5724 51.2493 81.9724 51.9482 81.9724C52.6472 81.9724 53.2139 82.5724 53.2139 83.3125Z" fill="#D2220A"/>
<path d="M69.9951 83.9688C69.9951 84.4347 69.6384 84.8125 69.1982 84.8125C68.7581 84.8125 68.4014 84.4347 68.4014 83.9688C68.4014 83.5028 68.7581 83.125 69.1982 83.125C69.6384 83.125 69.9951 83.5028 69.9951 83.9688Z" fill="#D2220A"/>
<path d="M56.4639 79.9834C56.4639 80.3397 56.191 80.6286 55.8545 80.6286C55.5179 80.6286 55.2451 80.3397 55.2451 79.9834C55.2451 79.627 55.5179 79.3381 55.8545 79.3381C56.191 79.3381 56.4639 79.627 56.4639 79.9834Z" fill="#D2220A"/>
<path d="M63.4063 76.696C63.4063 77.0524 63.1334 77.3412 62.7969 77.3412C62.4603 77.3412 62.1875 77.0524 62.1875 76.696C62.1875 76.3397 62.4603 76.0508 62.7969 76.0508C63.1334 76.0508 63.4063 76.3397 63.4063 76.696Z" fill="#D2220A"/>
<path d="M67.2764 72.25C67.2764 72.6063 67.0035 72.8952 66.667 72.8952C66.3304 72.8952 66.0576 72.6063 66.0576 72.25C66.0576 71.8936 66.3304 71.6047 66.667 71.6047C67.0035 71.6047 67.2764 71.8936 67.2764 72.25Z" fill="#D2220A"/>
<path d="M72.542 71.9375C72.542 72.2938 72.2692 72.5827 71.9326 72.5827C71.5961 72.5827 71.3232 72.2938 71.3232 71.9375C71.3232 71.5811 71.5961 71.2922 71.9326 71.2922C72.2692 71.2922 72.542 71.5811 72.542 71.9375Z" fill="#D2220A"/>
<path d="M72.7295 68.5937C72.7295 68.9501 72.4567 69.2389 72.1201 69.2389C71.7836 69.2389 71.5107 68.9501 71.5107 68.5937C71.5107 68.2374 71.7836 67.9485 72.1201 67.9485C72.4567 67.9485 72.7295 68.2374 72.7295 68.5937Z" fill="#D2220A"/>
<path d="M69.8076 71.9375C69.8076 72.2938 69.5348 72.5827 69.1982 72.5827C68.8617 72.5827 68.5889 72.2938 68.5889 71.9375C68.5889 71.5811 68.8617 71.2922 69.1982 71.2922C69.5348 71.2922 69.8076 71.5811 69.8076 71.9375Z" fill="#D2220A"/>
<path d="M68.4014 78.6928C68.4014 79.0492 68.1285 79.3381 67.792 79.3381C67.4554 79.3381 67.1826 79.0492 67.1826 78.6928C67.1826 78.3365 67.4554 78.0476 67.792 78.0476C68.1285 78.0476 68.4014 78.3365 68.4014 78.6928Z" fill="#D2220A"/>
<path d="M60.1983 77.0366C60.1983 77.3929 59.9254 77.6818 59.5889 77.6818C59.2523 77.6818 58.9795 77.3929 58.9795 77.0366C58.9795 76.6802 59.2523 76.3914 59.5889 76.3914C59.9254 76.3914 60.1983 76.6802 60.1983 77.0366Z" fill="#D2220A"/>
<path d="M48.5757 84.1562C48.5757 84.5126 48.3029 84.8014 47.9663 84.8014C47.6298 84.8014 47.3569 84.5126 47.3569 84.1562C47.3569 83.7999 47.6298 83.511 47.9663 83.511C48.3029 83.511 48.5757 83.7999 48.5757 84.1562Z" fill="#D2220A"/>
<path d="M61.1826 84.1563C61.1826 84.6222 60.8259 85 60.3857 85C59.9456 85 59.5889 84.6222 59.5889 84.1563C59.5889 83.6903 59.9456 83.3125 60.3857 83.3125C60.8259 83.3125 61.1826 83.6903 61.1826 84.1563Z" fill="#D2220A"/>
<path d="M56.4639 83.3125C56.4639 83.7785 56.1071 84.1563 55.667 84.1563C55.2269 84.1563 54.8701 83.7785 54.8701 83.3125C54.8701 82.8465 55.2269 82.4688 55.667 82.4688C56.1071 82.4688 56.4639 82.8465 56.4639 83.3125Z" fill="#D2220A"/>
<path d="M70.7501 74.6611C70.7501 75.2108 70.3293 75.6564 69.8101 75.6564C69.291 75.6564 68.8701 75.2108 68.8701 74.6611C68.8701 74.1114 69.291 73.6658 69.8101 73.6658C70.3293 73.6658 70.7501 74.1114 70.7501 74.6611Z" fill="#D2220A"/>
<path d="M69.2812 58.1541H27.2812C25.0721 58.1541 23.2812 59.9449 23.2812 62.154V70.25L32.8125 67.625L46.4375 71.1875L59.8125 68L73.2812 72.25V62.1541C73.2812 59.9449 71.4904 58.1541 69.2812 58.1541Z" fill="#B61C2E"/>
<path d="M26.3438 51.2791L21.1562 53.0916L18.7188 60.9666L22.6562 65.5291L32.7812 62.1541L46.3438 65.5291L59.1562 62.1541L73.7188 64.9041L77.2812 58.8416L75.9688 51.7791L69.9062 52.0916L63.5938 49.6541L52.3438 53.0916L44.5312 50.3416L32.2188 52.5916L26.3438 51.2791Z" fill="#FFF5C1"/>
<path fill-rule="evenodd" clip-rule="evenodd" d="M19.2457 52.5002C19.4333 51.894 19.8975 51.4128 20.4966 51.2035L25.6841 49.391C26.0362 49.2679 26.4158 49.2458 26.7798 49.3272L32.2586 50.5512L44.1718 48.3741C44.5142 48.3116 44.867 48.3394 45.1953 48.455L52.3879 50.9868L63.0093 47.7413C63.4373 47.6106 63.8968 47.6271 64.3142 47.7883L70.229 50.0723L75.8658 49.7817C76.8671 49.7301 77.7519 50.4279 77.9351 51.4136L79.2476 58.4761C79.3356 58.9498 79.2497 59.4394 79.0056 59.8548L75.4431 65.9173C75.0155 66.645 74.177 67.0259 73.3477 66.8693L59.229 64.2031L46.8532 67.4631C46.5282 67.5487 46.1869 67.551 45.8608 67.4699L32.8623 64.2352L23.2887 67.4264C22.5196 67.6828 21.6718 67.4495 21.1422 66.8358L17.2047 62.2733C16.7541 61.7512 16.6043 61.0339 16.8082 60.3752L19.2457 52.5002ZM32.7813 62.1541L46.3438 65.5291L59.1563 62.1541L73.7188 64.9041L77.2813 58.8416L75.9688 51.7791L69.9063 52.0916L63.5938 49.6541L52.3438 53.0916L44.5313 50.3416L32.2188 52.5916L26.3438 51.2791L21.1563 53.0916L18.7188 60.9666L22.6563 65.5291L32.7813 62.1541Z" fill="#CE9266"/>
<path fill-rule="evenodd" clip-rule="evenodd" d="M43.204 52.5753C43.3695 53.1022 43.0766 53.6635 42.5497 53.829L32.7997 56.8915C32.6222 56.9473 32.4328 56.9524 32.2526 56.9064L26.7257 55.4953L23.8633 56.8423C23.3636 57.0775 22.7678 56.863 22.5327 56.3633C22.2975 55.8636 22.512 55.2678 23.0117 55.0327L26.1992 53.5327C26.4093 53.4338 26.6473 53.4111 26.8724 53.4686L32.4717 54.8982L41.9503 51.9209C42.4772 51.7554 43.0385 52.0484 43.204 52.5753Z" fill="white"/>
<path d="M28 58.8416L23.4375 60.9666H18.7188L22.6562 65.5291L32.7812 62.1541L46.3438 65.5291L59.1562 62.1541L73.7188 64.9041L77.2812 58.8416L76.625 55.3103L72.875 58.8416H69.0625L62.625 55.9375L55.3125 57.6875L48.3125 59.6875L41 57.6875L37.1875 60.5625L28 58.8416Z" fill="#EAD076"/>
</svg>
