<svg width="158" height="96" viewBox="0 0 158 96" fill="none" xmlns="http://www.w3.org/2000/svg">
<path d="M98.6158 83.7454L90.3639 75.7381C88.9582 74.374 90.3025 71.5827 92.2295 71.1424C100.131 69.3369 104.523 61.2296 108.566 56.0426L108.592 56.0082C113.61 49.5704 114.048 49.0087 126.547 46.6065C133.007 45.3648 136.416 42.101 138.047 39.0939C138.872 37.5727 141.385 36.7617 142.624 37.9836L149.707 44.9671C150.165 45.4185 150.379 46.063 150.227 46.6817C148.056 55.52 139.05 58.9057 134.669 59.4946C128.741 60.3994 123.98 61.9685 117.72 72.2431C111.852 81.8754 103.805 84.245 99.8668 84.2738C99.3943 84.2773 98.9515 84.0711 98.6158 83.7454Z" fill="#D2492A"/>
<path fill-rule="evenodd" clip-rule="evenodd" d="M108.592 56.0082L108.566 56.0426C107.842 56.9703 107.108 57.9914 106.345 59.0531C102.839 63.9279 98.7177 69.6598 92.2295 71.1423C90.3026 71.5827 88.9582 74.374 90.3639 75.7381L98.6158 83.7454L97.2083 85.1373L88.9564 77.13C87.4486 75.6669 87.6281 73.6581 88.2067 72.3265C88.7898 70.9846 90.0388 69.6311 91.7752 69.2344C95.1411 68.4653 97.8733 66.3313 100.339 63.5704C101.568 62.1952 102.696 60.7031 103.79 59.1995C104.088 58.7886 104.388 58.3724 104.687 57.9569C105.459 56.8827 106.228 55.8133 106.976 54.8537C106.976 54.8537 106.976 54.8537 106.976 54.8536L107.003 54.8193L107.003 54.8193C107.062 54.7428 107.122 54.6669 107.18 54.5916C109.526 51.5802 111.128 49.5254 113.797 48.0795C116.428 46.6543 120.009 45.8666 126.162 44.6839C132.038 43.5546 134.936 40.6545 136.281 38.1749C136.997 36.8532 138.335 35.9774 139.647 35.6219C140.951 35.2684 142.738 35.3167 144.043 36.6028L151.126 43.5862C152.024 44.4715 152.501 45.7968 152.171 47.14L150.227 46.6817C150.379 46.063 150.165 45.4185 149.707 44.9671L142.624 37.9836C141.385 36.7617 138.872 37.5727 138.047 39.0939C136.416 42.101 133.007 45.3648 126.547 46.6065C114.048 49.0087 113.61 49.5704 108.592 56.0082ZM134.96 61.4331C132.103 61.8698 129.781 62.4336 127.436 63.9803C125.058 65.5487 122.486 68.2448 119.438 73.2472C113.205 83.4772 104.507 86.199 99.8818 86.233C98.7929 86.2409 97.858 85.7677 97.2083 85.1373L98.6158 83.7454C98.9515 84.0711 99.3943 84.2773 99.8668 84.2738C103.805 84.2449 111.852 81.8754 117.72 72.2431C123.98 61.9685 128.741 60.3993 134.669 59.4946C139.05 58.9057 148.056 55.52 150.227 46.6817L152.171 47.14C150.941 52.1461 147.772 55.5789 144.393 57.8069C141.052 60.0107 137.419 61.0994 134.96 61.4331Z" fill="#9B0D0D"/>
<path d="M126.547 46.6065C133.007 45.3648 136.416 42.101 138.047 39.0939C138.872 37.5727 141.385 36.7617 142.624 37.9836L144.305 39.6408C144.677 40.0079 144.894 40.5062 144.859 41.0225C144.232 50.35 132.854 55.3663 127.75 56.0426C122.5 56.7382 115.625 53.3878 108.566 64.4083C103.503 72.3119 96.9671 76.1279 93.4822 77.383C92.8218 77.6208 92.0979 77.4207 91.598 76.9356L90.3639 75.7381C88.9582 74.374 90.3025 71.5827 92.2295 71.1424C100.131 69.3369 104.523 61.2296 108.566 56.0426L108.592 56.0082C113.61 49.5704 114.048 49.0087 126.547 46.6065Z" fill="#B0351A"/>
<path d="M138.871 52.5628C138.389 52.9194 137.753 52.8913 137.452 52.5C137.15 52.1087 137.296 51.5025 137.779 51.1459C138.261 50.7893 138.896 50.8174 139.197 51.2087C139.499 51.6 139.353 52.2062 138.871 52.5628Z" fill="#A42F15"/>
<path d="M138.349 49.2829C137.867 49.6394 137.232 49.6113 136.93 49.22C136.628 48.8287 136.775 48.2225 137.257 47.8659C137.739 47.5093 138.374 47.5375 138.676 47.9287C138.977 48.32 138.831 48.9263 138.349 49.2829Z" fill="#A42F15"/>
<path d="M134.977 53.7358C134.495 54.0924 133.86 54.0643 133.558 53.673C133.257 53.2817 133.403 52.6755 133.885 52.3189C134.367 51.9623 135.002 51.9904 135.304 52.3817C135.606 52.773 135.459 53.3793 134.977 53.7358Z" fill="#A42F15"/>
<path d="M137.829 55.9554C137.347 56.3119 136.712 56.2838 136.41 55.8925C136.108 55.5013 136.255 54.895 136.737 54.5384C137.219 54.1819 137.854 54.21 138.156 54.6013C138.457 54.9925 138.311 55.5988 137.829 55.9554Z" fill="#A42F15"/>
<path d="M142.225 50.1036C141.549 50.6038 140.657 50.5643 140.234 50.0155C139.811 49.4666 140.017 48.6162 140.693 48.116C141.369 47.6158 142.26 47.6553 142.683 48.2042C143.106 48.753 142.901 49.6034 142.225 50.1036Z" fill="#A42F15"/>
<path d="M142.118 54.2156C141.442 54.7158 140.551 54.6764 140.128 54.1275C139.705 53.5786 139.91 52.7282 140.586 52.228C141.262 51.7278 142.154 51.7673 142.577 52.3162C143 52.865 142.795 53.7155 142.118 54.2156Z" fill="#A42F15"/>
<path d="M146.448 50.1954C145.771 50.6956 144.88 50.6561 144.457 50.1072C144.034 49.5584 144.239 48.7079 144.915 48.2078C145.592 47.7076 146.483 47.747 146.906 48.2959C147.329 48.8448 147.124 49.6952 146.448 50.1954Z" fill="#A42F15"/>
<path d="M144.53 46.8844C144.165 47.1542 143.685 47.1329 143.457 46.8369C143.228 46.5408 143.339 46.0821 143.704 45.8123C144.069 45.5425 144.549 45.5638 144.777 45.8598C145.006 46.1559 144.895 46.6146 144.53 46.8844Z" fill="#A42F15"/>
<path d="M144.351 44.4953C143.986 44.7651 143.505 44.7438 143.277 44.4477C143.049 44.1517 143.159 43.6929 143.524 43.4231C143.889 43.1533 144.37 43.1746 144.598 43.4707C144.826 43.7667 144.715 44.2255 144.351 44.4953Z" fill="#A42F15"/>
<path d="M141.786 46.5277C141.421 46.7975 140.941 46.7762 140.713 46.4801C140.484 46.1841 140.595 45.7253 140.96 45.4555C141.325 45.1857 141.805 45.207 142.033 45.5031C142.262 45.7992 142.151 46.2579 141.786 46.5277Z" fill="#A42F15"/>
<path d="M139.416 44.0502C139.051 44.32 138.57 44.2987 138.342 44.0026C138.114 43.7065 138.225 43.2478 138.589 42.978C138.954 42.7082 139.435 42.7295 139.663 43.0256C139.891 43.3216 139.78 43.7804 139.416 44.0502Z" fill="#A42F15"/>
<path d="M133.298 57.091C132.934 57.3608 132.453 57.3395 132.225 57.0434C131.996 56.7474 132.107 56.2886 132.472 56.0188C132.837 55.749 133.317 55.7703 133.546 56.0664C133.774 56.3624 133.663 56.8212 133.298 57.091Z" fill="#A42F15"/>
<path d="M135.144 48.5925C134.779 48.8623 134.298 48.841 134.07 48.5449C133.842 48.2489 133.952 47.7902 134.317 47.5204C134.682 47.2505 135.163 47.2718 135.391 47.5679C135.619 47.864 135.508 48.3227 135.144 48.5925Z" fill="#A42F15"/>
<path fill-rule="evenodd" clip-rule="evenodd" d="M112.356 53.9073C113.112 53.1177 114.377 53.0775 115.183 53.8174L122.331 60.3791C123.137 61.119 123.178 62.3588 122.422 63.1483C121.667 63.9378 120.402 63.9781 119.596 63.2382L112.448 56.6765C111.642 55.9366 111.601 54.6968 112.356 53.9073Z" fill="#E05739"/>
<path fill-rule="evenodd" clip-rule="evenodd" d="M93.3826 72.8994C94.1471 72.1184 95.4132 72.0923 96.2104 72.8412L102.68 78.9177C103.477 79.6665 103.504 80.9067 102.739 81.6877C101.975 82.4688 100.709 82.4948 99.9115 81.746L93.4421 75.6695C92.6448 74.9206 92.6182 73.6804 93.3826 72.8994Z" fill="#E05739"/>
<path fill-rule="evenodd" clip-rule="evenodd" d="M146.543 45.183C147.029 45.4409 147.209 46.0356 146.945 46.5111C143.808 52.1786 139.632 55.0194 134.002 56.2506C132.498 56.5797 131.217 56.8122 130.066 57.0212C126.989 57.5798 124.837 57.9705 121.807 59.5886C119.883 60.6165 118.508 62.344 116.973 64.6925C116.61 65.2465 116.24 65.8346 115.852 66.45C114.626 68.3952 113.228 70.6126 111.385 72.8857C107.556 77.6085 103.285 79.4917 100.245 80.5322C99.724 80.7107 99.1537 80.4413 98.9715 79.9306C98.7893 79.4199 99.0642 78.8612 99.5856 78.6827C102.425 77.7106 106.31 75.9945 109.819 71.6672C111.581 69.4938 112.892 67.4142 114.108 65.4864C114.507 64.8525 114.897 64.2349 115.288 63.6359C116.843 61.2583 118.447 59.152 120.85 57.8685C124.178 56.0907 126.713 55.6312 129.909 55.0518C131.027 54.8492 132.225 54.6319 133.566 54.3385C138.64 53.2288 142.33 50.7387 145.187 45.5772C145.451 45.1016 146.058 44.9251 146.543 45.183Z" fill="#FD9E75"/>
<path fill-rule="evenodd" clip-rule="evenodd" d="M142.414 41.6322C142.885 41.9148 143.033 42.5179 142.745 42.9792C139.479 48.2024 135.547 50.877 129.898 52.0222C128.446 52.3165 127.198 52.5156 126.079 52.6942C122.888 53.2034 120.74 53.546 117.889 55.4529C115.568 57.0052 114.053 58.6899 112.522 60.7486C111.983 61.4746 111.425 62.2712 110.823 63.1313C109.751 64.6626 108.539 66.3954 107.034 68.2898C103.131 73.2035 99.2457 75.3453 95.7982 75.774C95.2503 75.8422 94.7498 75.4623 94.6802 74.9256C94.6107 74.3889 94.9984 73.8986 95.5463 73.8305C98.3142 73.4862 101.767 71.7303 105.455 67.0866C106.939 65.2193 108.065 63.6082 109.104 62.1214C109.716 61.2451 110.298 60.412 110.906 59.5951C112.514 57.4319 114.185 55.5576 116.761 53.8348C120.007 51.6641 122.681 51.2398 126.02 50.7099C127.095 50.5393 128.239 50.3579 129.492 50.1037C134.582 49.0719 138.052 46.7338 141.039 41.956C141.328 41.4946 141.943 41.3497 142.414 41.6322Z" fill="#FD9E75"/>
<path d="M73.262 52.4957L67.7945 42.4571C66.8631 40.747 68.9895 38.4695 70.9632 38.6067C79.0564 39.1694 85.6978 32.6957 91.1251 28.911L91.1611 28.8859C97.8973 24.1884 98.485 23.7786 111.15 25.1021C117.696 25.7862 121.938 23.6552 124.403 21.2545C125.65 20.0401 128.295 19.9928 129.111 21.5189L133.77 30.2411C134.072 30.8049 134.081 31.4824 133.749 32.0294C129.009 39.8444 119.384 40.4717 115.021 39.766C109.085 38.914 104.064 39.0349 94.9834 47.0382C86.4708 54.5411 78.0686 54.4753 74.2976 53.3627C73.8452 53.2292 73.4844 52.9041 73.262 52.4957Z" fill="#D4482A"/>
<path fill-rule="evenodd" clip-rule="evenodd" d="M91.1611 28.8859L91.1251 28.911C90.1545 29.5879 89.145 30.3508 88.0953 31.144C83.2758 34.7862 77.6089 39.0688 70.9632 38.6067C68.9895 38.4695 66.8631 40.747 67.7945 42.4571L73.262 52.4957L71.4974 53.4179L66.0299 43.3793C65.0309 41.5451 65.8084 39.678 66.7629 38.5734C67.7248 37.4603 69.3263 36.5288 71.1048 36.6525C74.5524 36.8922 77.8064 35.6445 80.9951 33.7209C82.5834 32.7627 84.1118 31.664 85.6101 30.5442C86.0195 30.2381 86.431 29.9272 86.8418 29.6167C87.9039 28.8141 88.9611 28.0151 89.9652 27.3149C89.9652 27.3149 89.9653 27.3149 89.9653 27.3149L90.0012 27.2898L90.0012 27.2898C90.0813 27.234 90.1607 27.1786 90.2395 27.1236C93.3894 24.9261 95.5389 23.4265 98.5249 22.818C101.468 22.2181 105.127 22.5024 111.362 23.154C117.317 23.7762 120.96 21.8448 122.993 19.8652C124.076 18.8101 125.618 18.3606 126.979 18.4007C128.332 18.4407 130.024 19.0042 130.883 20.6105L135.542 29.3327C136.133 30.4383 136.189 31.8425 135.469 33.0303L133.749 32.0294C134.081 31.4824 134.072 30.8049 133.77 30.2411L129.111 21.5189C128.295 19.9928 125.65 20.0401 124.403 21.2545C121.938 23.6552 117.696 25.7862 111.15 25.1021C98.485 23.7786 97.8973 24.1884 91.1611 28.8859ZM114.714 41.702C111.853 41.2922 109.465 41.1586 106.758 41.9573C104.013 42.7672 100.742 44.598 96.3211 48.4946C87.2802 56.4632 78.1497 56.5453 73.7209 55.2387C72.6783 54.931 71.9279 54.2083 71.4974 53.4179L73.262 52.4957C73.4844 52.9041 73.8452 53.2292 74.2976 53.3627C78.0686 54.4753 86.4708 54.5411 94.9834 47.0382C104.064 39.0349 109.085 38.9139 115.021 39.766C119.384 40.4717 129.009 39.8444 133.749 32.0294L135.469 33.0303C132.784 37.4567 128.72 39.8186 124.82 40.9689C120.963 42.1068 117.164 42.0952 114.714 41.702Z" fill="#891616"/>
<path d="M121.77 34.9092C121.165 35.164 120.5 34.9726 120.285 34.4819C120.069 33.9911 120.385 33.3867 120.989 33.1319C121.594 32.8771 122.259 33.0685 122.474 33.5592C122.69 34.05 122.374 34.6544 121.77 34.9092Z" fill="#AD2F13"/>
<path d="M122.087 31.3053C121.482 31.56 120.817 31.3687 120.602 30.8779C120.386 30.3872 120.702 29.7828 121.306 29.528C121.911 29.2732 122.576 29.4645 122.791 29.9553C123.007 30.4461 122.691 31.0505 122.087 31.3053Z" fill="#AD2F13"/>
<path d="M117.339 35.1604C116.734 35.4152 116.069 35.2238 115.854 34.7331C115.638 34.2423 115.954 33.6379 116.558 33.3831C117.163 33.1283 117.828 33.3197 118.043 33.8104C118.259 34.3012 117.943 34.9056 117.339 35.1604Z" fill="#AD2F13"/>
<path d="M119.768 38.2344C119.163 38.4892 118.499 38.2979 118.283 37.8071C118.068 37.3163 118.383 36.7119 118.988 36.4571C119.592 36.2024 120.257 36.3937 120.473 36.8845C120.688 37.3752 120.373 37.9796 119.768 38.2344Z" fill="#AD2F13"/>
<path d="M125.971 33.1596C125.123 33.517 124.19 33.2486 123.888 32.5602C123.586 31.8718 124.028 31.024 124.876 30.6666C125.724 30.3092 126.657 30.5776 126.959 31.266C127.262 31.9544 126.819 32.8022 125.971 33.1596Z" fill="#AD2F13"/>
<path d="M124.769 37.484C123.92 37.8414 122.988 37.5731 122.685 36.8846C122.383 36.1962 122.826 35.3484 123.674 34.991C124.522 34.6336 125.455 34.902 125.757 35.5904C126.059 36.2789 125.617 37.1267 124.769 37.484Z" fill="#AD2F13"/>
<path d="M130.415 34.3304C129.567 34.6878 128.635 34.4194 128.332 33.731C128.03 33.0426 128.473 32.1948 129.321 31.8374C130.169 31.48 131.102 31.7484 131.404 32.4368C131.706 33.1252 131.264 33.973 130.415 34.3304Z" fill="#AD2F13"/>
<path d="M129.264 30.3389C128.806 30.5317 128.303 30.387 128.14 30.0156C127.977 29.6443 128.216 29.187 128.673 28.9942C129.131 28.8014 129.634 28.9462 129.797 29.3175C129.96 29.6889 129.721 30.1462 129.264 30.3389Z" fill="#AD2F13"/>
<path d="M129.707 27.7649C129.249 27.9576 128.746 27.8129 128.583 27.4415C128.42 27.0702 128.659 26.6129 129.116 26.4201C129.574 26.2273 130.077 26.3721 130.24 26.7434C130.403 27.1148 130.164 27.5721 129.707 27.7649Z" fill="#AD2F13"/>
<path d="M126.454 29.2636C125.997 29.4564 125.494 29.3116 125.331 28.9403C125.168 28.5689 125.406 28.1116 125.864 27.9188C126.321 27.7261 126.824 27.8708 126.987 28.2422C127.15 28.6135 126.912 29.0708 126.454 29.2636Z" fill="#AD2F13"/>
<path d="M124.602 26.0389C124.145 26.2317 123.642 26.0869 123.479 25.7156C123.315 25.3442 123.554 24.8869 124.012 24.6942C124.469 24.5014 124.972 24.6461 125.135 25.0175C125.298 25.3888 125.06 25.8462 124.602 26.0389Z" fill="#AD2F13"/>
<path d="M114.673 38.2843C114.215 38.4771 113.712 38.3323 113.549 37.961C113.386 37.5896 113.625 37.1323 114.082 36.9395C114.54 36.7468 115.043 36.8915 115.206 37.2629C115.369 37.6342 115.13 38.0915 114.673 38.2843Z" fill="#AD2F13"/>
<path d="M118.877 29.7597C118.42 29.9525 117.917 29.8077 117.754 29.4363C117.591 29.065 117.829 28.6077 118.287 28.4149C118.744 28.2221 119.247 28.3669 119.41 28.7382C119.574 29.1096 119.335 29.5669 118.877 29.7597Z" fill="#AD2F13"/>
<path fill-rule="evenodd" clip-rule="evenodd" d="M95.8372 26.8759C96.7917 26.3313 98.0161 26.6478 98.5721 27.5828L104.228 37.0955C104.784 38.0305 104.461 39.23 103.507 39.7746C102.552 40.3192 101.328 40.0027 100.772 39.0677L95.1157 29.555C94.5597 28.62 94.8828 27.4205 95.8372 26.8759Z" fill="#EB5E3F"/>
<path fill-rule="evenodd" clip-rule="evenodd" d="M70.4584 39.7734C71.4314 39.2613 72.644 39.6189 73.1667 40.5721L78.0745 49.5219C78.5972 50.4751 78.2322 51.6629 77.2591 52.175C76.286 52.687 75.0735 52.3294 74.5508 51.3762L69.6429 42.4264C69.1202 41.4732 69.4853 40.2854 70.4584 39.7734Z" fill="#EB5E3F"/>
<path fill-rule="evenodd" clip-rule="evenodd" d="M130.683 29.5313C131.069 29.9183 131.061 30.5385 130.666 30.9166C125.959 35.4226 121.112 36.9274 115.363 36.4739C113.826 36.3527 112.533 36.204 111.37 36.0704C108.262 35.7132 106.088 35.4634 102.706 36.1322C100.557 36.557 98.7221 37.8093 96.5469 39.6083C96.0337 40.0327 95.5021 40.4873 94.9459 40.9628C93.1877 42.4662 91.1835 44.1799 88.7371 45.8179C83.6541 49.2212 79.0056 49.7838 75.7881 49.8978C75.2362 49.9174 74.7726 49.495 74.7526 48.9543C74.7326 48.4136 75.1639 47.9595 75.7158 47.9399C78.7217 47.8334 82.9513 47.3187 87.6086 44.2004C89.9477 42.6343 91.8277 41.0272 93.5704 39.5374C94.1435 39.0475 94.7018 38.5702 95.2566 38.1113C97.4589 36.2899 99.627 34.7422 102.31 34.2117C106.026 33.477 108.586 33.7718 111.814 34.1436C112.943 34.2736 114.153 34.4129 115.523 34.521C120.705 34.9298 124.981 33.6191 129.268 29.5154C129.663 29.1373 130.297 29.1444 130.683 29.5313Z" fill="#E7B469"/>
<path fill-rule="evenodd" clip-rule="evenodd" d="M127.81 24.9439C128.174 25.3502 128.134 25.9691 127.719 26.3264C123.023 30.3708 118.46 31.7875 112.717 31.246C111.242 31.1069 109.99 30.9358 108.866 30.7824C105.664 30.3449 103.509 30.0505 100.21 31.0468C97.5245 31.8578 95.5688 33.0287 93.4854 34.5522C92.7506 35.0895 91.9777 35.6891 91.1432 36.3365C89.6574 37.4892 87.9762 38.7935 85.967 40.1676C80.7555 43.7318 76.398 44.6532 72.9752 44.0647C72.4312 43.9712 72.0676 43.4634 72.1631 42.9305C72.2586 42.3977 72.7769 42.0415 73.3209 42.135C76.069 42.6075 79.8969 41.9295 84.8221 38.5612C86.8025 37.2068 88.3642 35.9936 89.8053 34.874C90.6547 34.2142 91.4622 33.5868 92.289 32.9822C94.4782 31.3813 96.6403 30.0747 99.6209 29.1746C103.376 28.0404 106.059 28.4092 109.409 28.8697C110.487 29.0179 111.634 29.1756 112.909 29.2958C118.082 29.7837 122.103 28.5546 126.398 24.855C126.813 24.4978 127.445 24.5376 127.81 24.9439Z" fill="#E7B469"/>
<path d="M82.0829 73.6392L75.1876 64.483C74.013 62.9233 75.78 60.3679 77.7531 60.2234C85.8441 59.6309 91.4573 52.2824 96.2673 47.767L96.2992 47.737C102.269 42.1326 102.79 41.6436 115.517 41.1547C122.095 40.902 125.977 38.1912 128.061 35.4658C129.115 34.0872 131.725 33.6647 132.758 35.0589L138.659 43.0273C139.04 43.5423 139.15 44.2114 138.903 44.7997C135.369 53.2053 125.938 55.1927 121.517 55.114C115.517 55.114 110.567 55.9466 102.767 65.1548C95.4549 73.7874 87.1317 74.9153 83.2359 74.35C82.7685 74.2822 82.3634 74.0117 82.0829 73.6392Z" fill="#E85434"/>
<path fill-rule="evenodd" clip-rule="evenodd" d="M96.2992 47.737L96.2673 47.767C95.4071 48.5746 94.5211 49.4728 93.5999 50.4067C89.3703 54.6948 84.397 59.7368 77.7532 60.2234C75.78 60.3679 74.013 62.9233 75.1876 64.4831L82.0829 73.6392L80.4735 74.8023L73.5782 65.6461C72.3183 63.9731 72.8113 62.0153 73.5923 60.7868C74.3792 59.5489 75.826 58.3999 77.6041 58.2697C81.0507 58.0172 84.0857 56.3207 86.9561 53.9646C88.3858 52.791 89.7355 51.4868 91.0522 50.1661C91.412 49.8052 91.7732 49.439 92.1337 49.0735C93.0657 48.1286 93.9936 47.1879 94.8835 46.3525C94.8835 46.3525 94.8835 46.3525 94.8835 46.3525L94.9154 46.3226L94.9154 46.3225C94.9863 46.2559 95.0567 46.1899 95.1265 46.1243C97.918 43.5027 99.8229 41.7137 102.687 40.6876C105.511 39.676 109.173 39.4378 115.439 39.197C121.422 38.9672 124.742 36.5387 126.46 34.2914C127.376 33.0936 128.835 32.4298 130.187 32.2764C131.531 32.1238 133.29 32.4411 134.376 33.9085L140.278 41.8768C141.026 42.8869 141.289 44.2683 140.752 45.5458L138.903 44.7997C139.15 44.2114 139.04 43.5423 138.659 43.0273L132.758 35.059C131.725 33.6647 129.115 34.0872 128.061 35.4658C125.977 38.1912 122.095 40.902 115.517 41.1547C102.79 41.6437 102.269 42.1326 96.2992 47.737ZM121.5 57.0732C118.609 57.074 116.226 57.281 113.666 58.4556C111.069 59.6467 108.104 61.9227 104.306 66.4059C96.5402 75.5742 87.5183 76.952 82.9429 76.288C81.8658 76.1317 81.0163 75.5232 80.4735 74.8023L82.0829 73.6392C82.3634 74.0117 82.7686 74.2822 83.236 74.35C87.1318 74.9153 95.4549 73.7874 102.767 65.1548C110.567 55.9467 115.517 55.114 121.517 55.114C125.938 55.1927 135.369 53.2054 138.903 44.7997L140.752 45.5458C138.75 50.3068 135.079 53.2208 131.391 54.9128C127.743 56.5864 123.982 57.1144 121.5 57.0732Z" fill="#9B0D0D"/>
<path d="M127.427 49.2467C126.859 49.5449 126.194 49.4131 125.942 48.9524C125.69 48.4917 125.946 47.8766 126.513 47.5784C127.081 47.2803 127.746 47.4121 127.998 47.8727C128.25 48.3334 127.994 48.9486 127.427 49.2467Z" fill="#C8391A"/>
<path d="M127.427 45.7075C126.859 46.0057 126.194 45.8739 125.942 45.4132C125.69 44.9525 125.946 44.3374 126.513 44.0392C127.081 43.7411 127.746 43.8729 127.998 44.3335C128.25 44.7942 127.994 45.4094 127.427 45.7075Z" fill="#C8391A"/>
<path d="M123.129 49.8564C122.561 50.1545 121.896 50.0228 121.644 49.5621C121.392 49.1014 121.648 48.4862 122.215 48.1881C122.783 47.89 123.448 48.0217 123.7 48.4824C123.952 48.9431 123.696 49.5583 123.129 49.8564Z" fill="#C8391A"/>
<path d="M125.761 52.6531C125.193 52.9512 124.529 52.8194 124.276 52.3588C124.024 51.8981 124.28 51.2829 124.848 50.9848C125.415 50.6866 126.08 50.8184 126.332 51.2791C126.584 51.7398 126.328 52.3549 125.761 52.6531Z" fill="#C8391A"/>
<path d="M131.372 47.1953C130.576 47.6135 129.644 47.4287 129.29 46.7824C128.936 46.1362 129.295 45.2733 130.091 44.8551C130.887 44.4369 131.82 44.6217 132.173 45.268C132.527 45.9142 132.168 46.7771 131.372 47.1953Z" fill="#C8391A"/>
<path d="M130.571 51.5102C129.775 51.9284 128.843 51.7435 128.489 51.0973C128.135 50.4511 128.494 49.5882 129.29 49.17C130.086 48.7517 131.018 48.9366 131.372 49.5828C131.726 50.2291 131.367 51.092 130.571 51.5102Z" fill="#C8391A"/>
<path d="M135.805 47.971C135.009 48.3892 134.077 48.2043 133.723 47.5581C133.369 46.9119 133.728 46.049 134.524 45.6308C135.321 45.2125 136.253 45.3974 136.606 46.0436C136.96 46.6899 136.602 47.5528 135.805 47.971Z" fill="#C8391A"/>
<path d="M134.34 44.1745C133.911 44.4 133.408 44.3003 133.217 43.9518C133.026 43.6032 133.22 43.1377 133.649 42.9121C134.079 42.6866 134.581 42.7863 134.772 43.1348C134.963 43.4834 134.77 43.9489 134.34 44.1745Z" fill="#C8391A"/>
<path d="M134.551 41.6287C134.122 41.8543 133.619 41.7546 133.428 41.406C133.237 41.0574 133.431 40.5919 133.86 40.3664C134.29 40.1408 134.793 40.2405 134.983 40.5891C135.174 40.9376 134.981 41.4031 134.551 41.6287Z" fill="#C8391A"/>
<path d="M131.509 43.3575C131.08 43.5831 130.577 43.4834 130.386 43.1348C130.195 42.7862 130.389 42.3208 130.818 42.0952C131.248 41.8696 131.75 41.9693 131.941 42.3179C132.132 42.6665 131.939 43.1319 131.509 43.3575Z" fill="#C8391A"/>
<path d="M129.427 40.3665C128.998 40.5921 128.495 40.4924 128.304 40.1438C128.113 39.7952 128.307 39.3298 128.736 39.1042C129.166 38.8786 129.668 38.9783 129.859 39.3269C130.05 39.6755 129.857 40.1409 129.427 40.3665Z" fill="#C8391A"/>
<path d="M120.798 53.1211C120.368 53.3467 119.865 53.247 119.675 52.8984C119.484 52.5499 119.677 52.0844 120.107 51.8588C120.536 51.6332 121.039 51.7329 121.23 52.0815C121.421 52.4301 121.227 52.8955 120.798 53.1211Z" fill="#C8391A"/>
<path d="M124.165 44.4649C123.736 44.6905 123.233 44.5908 123.042 44.2422C122.851 43.8936 123.045 43.4282 123.474 43.2026C123.904 42.977 124.407 43.0767 124.598 43.4253C124.788 43.7739 124.595 44.2393 124.165 44.4649Z" fill="#C8391A"/>
<path fill-rule="evenodd" clip-rule="evenodd" d="M100.683 45.2405C101.562 44.5861 102.817 44.7542 103.485 45.6159L109.968 53.9783C110.636 54.84 110.464 56.0691 109.585 56.7234C108.705 57.3778 107.45 57.2097 106.782 56.348L100.3 47.9856C99.6315 47.1239 99.8031 45.8949 100.683 45.2405Z" fill="#FF876D"/>
<path fill-rule="evenodd" clip-rule="evenodd" d="M77.9265 61.8904C78.8035 61.2326 80.0588 61.3958 80.7303 62.2549L86.6505 69.8293C87.322 70.6884 87.1554 71.9181 86.2783 72.5759C85.4013 73.2337 84.146 73.0705 83.4745 72.2114L77.5543 64.637C76.8828 63.7779 77.0494 62.5482 77.9265 61.8904Z" fill="#FF876D"/>
<path fill-rule="evenodd" clip-rule="evenodd" d="M135.499 42.7635C135.938 43.0915 136.022 43.7062 135.688 44.1364C131.697 49.2632 127.124 51.4404 121.368 51.8081C119.83 51.9064 118.528 51.943 117.358 51.9759C114.23 52.0639 112.042 52.1254 108.794 53.2674C106.731 53.9929 105.101 55.4925 103.215 57.5814C102.77 58.0742 102.311 58.5994 101.831 59.149C100.314 60.8861 98.5846 62.8663 96.4065 64.8344C91.8808 68.9236 87.3646 70.1403 84.198 70.71C83.6548 70.8078 83.1336 70.4556 83.0338 69.9235C82.934 69.3914 83.2935 68.8808 83.8367 68.7831C86.7951 68.2508 90.9039 67.141 95.0505 63.3943C97.1331 61.5125 98.7554 59.6554 100.259 57.9339C100.754 57.3678 101.236 56.8163 101.717 56.2834C103.626 54.1686 105.542 52.3293 108.118 51.4234C111.686 50.1688 114.263 50.0969 117.512 50.0064C118.648 49.9747 119.867 49.9407 121.238 49.8531C126.426 49.5217 130.463 47.6176 134.097 42.9485C134.432 42.5183 135.059 42.4355 135.499 42.7635Z" fill="#FAF1D1"/>
<path fill-rule="evenodd" clip-rule="evenodd" d="M131.977 38.6325C132.398 38.9827 132.45 39.6009 132.092 40.0132C128.044 44.6817 123.739 46.7315 117.977 47.0112C116.496 47.083 115.232 47.0916 114.098 47.0993C110.865 47.1212 108.689 47.1359 105.572 48.5901C103.035 49.774 101.273 51.2102 99.4374 53.0135C98.7899 53.6494 98.1139 54.3525 97.384 55.1115C96.0845 56.4631 94.614 57.9923 92.8293 59.6372C88.2004 63.9037 84.0252 65.4342 80.5515 65.338C79.9994 65.3227 79.5645 64.8719 79.5801 64.3311C79.5958 63.7903 80.056 63.3643 80.608 63.3796C83.397 63.4569 87.0842 62.2425 91.4588 58.2103C93.2179 56.589 94.5836 55.1668 95.8438 53.8544C96.5866 53.081 97.2927 52.3456 98.0213 51.63C99.9505 49.7351 101.896 48.1352 104.712 46.8213C108.26 45.1659 110.969 45.1498 114.352 45.1298C115.441 45.1233 116.599 45.1165 117.878 45.0544C123.069 44.8024 126.865 43.0154 130.568 38.745C130.925 38.3326 131.556 38.2822 131.977 38.6325Z" fill="#FAF1D1"/>
<g clip-path="url(#clip0)">
<path d="M36.8268 17.9613C46.6902 17.7778 54.9999 33.8226 55.2807 48.3108C55.5616 62.7991 47.7502 72.4686 37.8868 72.652C28.0233 72.8355 19.8429 63.4634 19.5621 48.9751C19.2813 34.4869 27.5857 18.1332 36.8268 17.9613Z" fill="#EDE6CF"/>
<path fill-rule="evenodd" clip-rule="evenodd" d="M51.3885 26.6703C54.9022 32.7612 57.1339 40.7144 57.2804 48.2736C57.5716 63.2985 49.3769 74.3979 37.9247 74.6109C26.4726 74.8239 17.8537 64.0372 17.5625 49.0123C17.4155 41.426 19.5063 33.3887 22.8557 27.1838C24.5323 24.0778 26.5659 21.3533 28.8715 19.3701C31.1747 17.3889 33.8623 16.0569 36.7888 16.0025C42.8767 15.8892 47.9521 20.7134 51.3885 26.6703ZM55.2808 48.3108C55 33.8226 46.6902 17.7778 36.8268 17.9613C27.5857 18.1332 19.2813 34.4869 19.5621 48.9751C19.8429 63.4634 28.0234 72.8355 37.8868 72.652C47.7502 72.4686 55.5616 62.7991 55.2808 48.3108Z" fill="#968960"/>
<path fill-rule="evenodd" clip-rule="evenodd" d="M42.8763 19.8949C46.6536 25.6143 49.1296 33.6874 49.2773 41.3126C49.5475 55.2502 41.9784 64.5532 32.4225 64.731C28.4416 64.805 24.7438 63.2836 21.7647 60.4756C24.8828 68.2118 30.9711 72.7807 37.8868 72.6521C47.7502 72.4686 55.5616 62.7991 55.2808 48.3108C55.06 36.9199 49.8762 24.5668 42.8763 19.8949Z" fill="#DBD2B2"/>
<path d="M33.0019 26.9267C37.06 27.74 32.2669 33.1748 34.125 38.9388C37.125 48.2449 31.879 52.5499 27.8209 51.7366C23.7628 50.9234 21.6329 44.7103 23.0636 37.8592C24.4943 31.0082 28.9439 26.1135 33.0019 26.9267Z" fill="#FEF8E3"/>
<path fill-rule="evenodd" clip-rule="evenodd" d="M28.0103 38.785C27.8753 40.3004 27.8751 41.6707 27.875 42.1225C27.875 42.934 27.2035 43.5919 26.375 43.5919C25.5466 43.5919 24.875 42.934 24.875 42.1225L24.875 42.1196C24.8751 41.6498 24.8751 40.1758 25.0216 38.5297C25.1625 36.9476 25.4565 34.9493 26.1628 33.5769C26.5357 32.8522 27.4377 32.5609 28.1774 32.9262C28.9172 33.2916 29.2145 34.1751 28.8416 34.8998C28.4208 35.7176 28.1512 37.2022 28.0103 38.785Z" fill="white"/>
<path d="M50.6171 39.4947C51.4101 40.1146 51.6091 41.162 51.0614 41.8343C50.5138 42.5066 49.427 42.549 48.634 41.9292C47.841 41.3093 47.642 40.2618 48.1897 39.5895C48.7373 38.9173 49.8241 38.8748 50.6171 39.4947Z" fill="#CFC59E"/>
<path d="M49.7406 35.4697C50.1919 35.8225 50.3051 36.4186 49.9935 36.8011C49.6819 37.1837 49.0634 37.2079 48.6121 36.8551C48.1608 36.5024 48.0476 35.9063 48.3592 35.5237C48.6709 35.1411 49.2893 35.117 49.7406 35.4697Z" fill="#CFC59E"/>
<path d="M46.5915 37.3891C47.0427 37.7418 47.156 38.3379 46.8443 38.7205C46.5327 39.1031 45.9142 39.1272 45.4629 38.7745C45.0117 38.4217 44.8984 37.8256 45.2101 37.4431C45.5217 37.0605 46.1402 37.0363 46.5915 37.3891Z" fill="#CFC59E"/>
<path d="M44.961 30.1199C45.1845 30.2946 45.2405 30.5898 45.0862 30.7792C44.9319 30.9687 44.6256 30.9807 44.4021 30.806C44.1787 30.6313 44.1226 30.3361 44.2769 30.1466C44.4312 29.9572 44.7375 29.9452 44.961 30.1199Z" fill="#CFC59E"/>
<path d="M45.6559 25.3863C45.8794 25.5609 45.9354 25.8561 45.7811 26.0456C45.6268 26.235 45.3205 26.247 45.097 26.0723C44.8736 25.8976 44.8175 25.6024 44.9718 25.413C45.1261 25.2235 45.4324 25.2116 45.6559 25.3863Z" fill="#CFC59E"/>
<path d="M51.7862 37.8462C52.0097 38.0208 52.0658 38.316 51.9115 38.5055C51.7572 38.6949 51.4509 38.7069 51.2274 38.5322C51.0039 38.3575 50.9479 38.0623 51.1022 37.8729C51.2565 37.6834 51.5628 37.6715 51.7862 37.8462Z" fill="#CFC59E"/>
<path d="M52.4432 41.8038C52.6666 41.9785 52.7227 42.2737 52.5684 42.4631C52.4141 42.6526 52.1078 42.6645 51.8843 42.4899C51.6608 42.3152 51.6048 42.02 51.7591 41.8305C51.9134 41.6411 52.2197 41.6291 52.4432 41.8038Z" fill="#CFC59E"/>
<path d="M46.2822 41.7157C46.6198 41.9796 46.7045 42.4256 46.4714 42.7118C46.2382 42.998 45.7755 43.0161 45.4379 42.7522C45.1002 42.4883 45.0155 42.0423 45.2487 41.7561C45.4818 41.4699 45.9445 41.4518 46.2822 41.7157Z" fill="#CFC59E"/>
<path d="M53.3637 47.8636C53.7013 48.1276 53.786 48.5735 53.5529 48.8597C53.3197 49.146 52.857 49.164 52.5194 48.9001C52.1818 48.6362 52.0971 48.1902 52.3302 47.904C52.5634 47.6178 53.0261 47.5997 53.3637 47.8636Z" fill="#CFC59E"/>
<path d="M49.9822 46.9654C50.3198 47.2293 50.4045 47.6752 50.1714 47.9615C49.9382 48.2477 49.4755 48.2658 49.1379 48.0018C48.8003 47.7379 48.7156 47.292 48.9487 47.0057C49.1818 46.7195 49.6445 46.7014 49.9822 46.9654Z" fill="#CFC59E"/>
<path d="M49.3632 44.1013C49.8145 44.454 49.9277 45.0501 49.6161 45.4327C49.3044 45.8153 48.686 45.8394 48.2347 45.4867C47.7834 45.1339 47.6702 44.5378 47.9818 44.1552C48.2934 43.7727 48.9119 43.7485 49.3632 44.1013Z" fill="#CFC59E"/>
<path d="M49.1023 31.8542C49.5536 32.207 49.6668 32.8031 49.3552 33.1857C49.0436 33.5682 48.4251 33.5924 47.9738 33.2396C47.5225 32.8869 47.4093 32.2908 47.7209 31.9082C48.0326 31.5257 48.651 31.5015 49.1023 31.8542Z" fill="#CFC59E"/>
<path d="M46.2602 32.8856C46.847 33.3442 46.9942 34.1192 46.589 34.6165C46.1839 35.1139 45.3798 35.1453 44.7931 34.6867C44.2063 34.2281 44.0592 33.4531 44.4643 32.9557C44.8695 32.4584 45.6735 32.4269 46.2602 32.8856Z" fill="#CFC59E"/>
<path d="M47.2638 27.9296C47.8505 28.3882 47.9977 29.1632 47.5925 29.6606C47.1874 30.158 46.3833 30.1894 45.7966 29.7308C45.2099 29.2722 45.0627 28.4972 45.4678 27.9998C45.873 27.5024 46.6771 27.471 47.2638 27.9296Z" fill="#CFC59E"/>
<path d="M52.5659 44.1605C53.1526 44.6191 53.2998 45.3941 52.8947 45.8915C52.4895 46.3888 51.6854 46.4203 51.0987 45.9616C50.512 45.503 50.3648 44.728 50.77 44.2307C51.1751 43.7333 51.9792 43.7019 52.5659 44.1605Z" fill="#CFC59E"/>
<path d="M52.9435 51.0946C53.5302 51.5532 53.6774 52.3282 53.2722 52.8256C52.8671 53.3229 52.063 53.3544 51.4763 52.8957C50.8896 52.4371 50.7424 51.6621 51.1475 51.1648C51.5527 50.6674 52.3568 50.636 52.9435 51.0946Z" fill="#CFC59E"/>
<path d="M65.375 82.4082C80.25 77.6327 87.3125 61.7143 85.6218 51.1552L35 68.6939C34.5 70.5061 35.1052 74.9172 36.5625 76.9592C41.5 83.8775 53.2172 86.3113 65.375 82.4082Z" fill="white"/>
<path fill-rule="evenodd" clip-rule="evenodd" d="M86.646 49.4724C87.1567 49.7707 87.5055 50.2762 87.5976 50.8516C88.5246 56.641 87.0468 63.7046 83.4502 69.917C79.8367 76.1587 73.9896 81.7043 65.9979 84.2699C53.4324 88.304 40.5849 86.0146 34.9234 78.0818C33.9437 76.7091 33.3646 74.7588 33.0748 73.0641C32.7881 71.3877 32.7064 69.4979 33.0693 68.1827C33.2408 67.561 33.7133 67.0616 34.3331 66.8468L84.9549 49.3081C85.5155 49.1139 86.1352 49.1741 86.646 49.4724ZM85.6218 51.1552L35 68.6939C34.5 70.5061 35.1052 74.9172 36.5625 76.9592C41.5 83.8776 53.2172 86.3114 65.375 82.4082C79.3355 77.9263 86.4146 63.6294 85.8346 53.1596C85.7966 52.4738 85.7257 51.8044 85.6218 51.1552Z" fill="#968960"/>
<path fill-rule="evenodd" clip-rule="evenodd" d="M34.8273 70.3444L36.6963 68.1062L35 68.6939C34.8821 69.1212 34.8256 69.6931 34.8273 70.3444ZM85.6217 51.1552C87.2904 61.5767 80.4325 77.2189 65.9523 82.2159C73.0463 74.4546 75.1368 63.4462 73.1875 55.4632L85.6217 51.1552Z" fill="#F4F3DB"/>
<path fill-rule="evenodd" clip-rule="evenodd" d="M71.8984 79.3359C82.282 72.6863 87.0425 60.0284 85.6217 51.1552L79.3668 53.3223C80.998 61.2492 78.8014 71.8264 71.8984 79.3359ZM35.3163 74.0053L41.6858 66.3775L35 68.6939C34.6832 69.8422 34.8101 72.034 35.3163 74.0053Z" fill="#DEDCB1"/>
<path d="M85.2247 50.0693C87.2825 54.809 77.7384 63.3228 63.9072 69.0853C50.076 74.8479 37.1954 75.6772 35.1375 70.9375C33.0797 66.1979 42.6238 57.6841 56.455 51.9215C70.2862 46.1589 83.1668 45.3297 85.2247 50.0693Z" fill="#FDFCE4"/>
<path fill-rule="evenodd" clip-rule="evenodd" d="M81.8709 60.6423C77.8069 64.2676 71.756 67.9443 64.6899 70.8882C57.6239 73.8322 50.7232 75.5516 45.2385 75.9047C42.5059 76.0807 40.0104 75.9254 37.9861 75.336C35.9778 74.7513 34.1381 73.6413 33.2971 71.7043C32.4561 69.7673 32.916 67.6992 33.879 65.8765C34.8498 64.0394 36.4665 62.1707 38.4913 60.3645C42.5553 56.7393 48.6062 53.0626 55.6722 50.1186C62.7383 47.1747 69.639 45.4552 75.1237 45.1021C77.8563 44.9262 80.3518 45.0815 82.376 45.6708C84.3843 46.2555 86.2241 47.3656 87.0651 49.3025C87.9061 51.2395 87.4462 53.3077 86.4832 55.1304C85.5124 56.9675 83.8957 58.8361 81.8709 60.6423ZM63.9072 69.0853C77.7384 63.3227 87.2825 54.809 85.2247 50.0693C83.1668 45.3297 70.2862 46.1589 56.455 51.9215C42.6238 57.6841 33.0797 66.1979 35.1375 70.9375C37.1954 75.6772 50.076 74.8479 63.9072 69.0853Z" fill="#968960"/>
<path d="M68.4328 56.1242C70.0197 59.5483 64.3664 65.4105 55.8057 69.2178C47.245 73.0252 39.0187 73.3359 37.4317 69.9118C35.8448 66.4877 41.4981 60.6255 50.0588 56.8182C58.6195 53.0108 66.8458 52.7002 68.4328 56.1242Z" fill="white"/>
<path fill-rule="evenodd" clip-rule="evenodd" d="M71.7236 48.0725C78.0899 47.1169 82.2881 48.4394 83.7422 49.389C84.2018 49.6891 84.3259 50.2973 84.0196 50.7474C83.7132 51.1976 83.0924 51.3192 82.6328 51.0191C81.7119 50.4177 78.0602 49.1034 72.0265 50.0091C66.6819 50.8113 64.048 51.7261 62.3623 52.3116C62.123 52.3947 61.9027 52.4712 61.6966 52.5398C61.1737 52.7138 60.6058 52.4395 60.4281 51.9273C60.2505 51.415 60.5305 50.8587 61.0534 50.6847C61.2554 50.6175 61.4732 50.5419 61.7115 50.4591C63.425 49.8642 66.1956 48.9023 71.7236 48.0725Z" fill="#E6E4BC"/>
<path d="M61.2257 66.9468C61.121 66.3913 60.307 66.0727 59.4075 66.2353C58.5079 66.3979 57.8635 66.98 57.9681 67.5355C58.0728 68.0911 58.8868 68.4096 59.7864 68.247C60.6859 68.0845 61.3303 67.5023 61.2257 66.9468Z" fill="#E9E8CB"/>
<path d="M67.2522 63.9681C67.1475 63.4126 66.3335 63.094 65.4339 63.2566C64.5344 63.4192 63.89 64.0013 63.9946 64.5568C64.0993 65.1124 64.9133 65.4309 65.8128 65.2683C66.7124 65.1058 67.3568 64.5236 67.2522 63.9681Z" fill="#E9E8CB"/>
<path d="M52.6096 65.4638C52.5049 64.9083 51.6909 64.5897 50.7914 64.7523C49.8918 64.9149 49.2474 65.497 49.3521 66.0526C49.4567 66.6081 50.2707 66.9266 51.1703 66.7641C52.0698 66.6015 52.7142 66.0194 52.6096 65.4638Z" fill="#E9E8CB"/>
<path d="M46.3624 70.4728C46.2578 69.9173 45.4437 69.5988 44.5442 69.7613C43.6446 69.9239 43.0002 70.5061 43.1049 71.0616C43.2095 71.6171 44.0235 71.9357 44.9231 71.7731C45.8226 71.6105 46.467 71.0284 46.3624 70.4728Z" fill="#E9E8CB"/>
<path d="M56.3315 68.7195C56.2591 68.3352 55.696 68.1149 55.0738 68.2273C54.4516 68.3398 54.0058 68.7425 54.0782 69.1268C54.1506 69.5111 54.7137 69.7314 55.3359 69.6189C55.9581 69.5065 56.4039 69.1038 56.3315 68.7195Z" fill="#E9E8CB"/>
<path d="M48.206 67.36C48.1336 66.9757 47.5705 66.7553 46.9483 66.8678C46.3261 66.9803 45.8803 67.3829 45.9527 67.7672C46.0251 68.1515 46.5882 68.3718 47.2104 68.2594C47.8326 68.1469 48.2784 67.7442 48.206 67.36Z" fill="#E9E8CB"/>
<path d="M39.7864 70.6231C39.714 70.2388 39.1509 70.0184 38.5287 70.1309C37.9065 70.2433 37.4607 70.646 37.5331 71.0303C37.6055 71.4146 38.1685 71.6349 38.7908 71.5225C39.413 71.41 39.8588 71.0073 39.7864 70.6231Z" fill="#E9E8CB"/>
<path d="M56.4871 65.7982C56.4147 65.414 55.8516 65.1936 55.2294 65.3061C54.6071 65.4185 54.1614 65.8212 54.2338 66.2055C54.3061 66.5898 54.8692 66.8101 55.4915 66.6977C56.1137 66.5852 56.5595 66.1825 56.4871 65.7982Z" fill="#E9E8CB"/>
<path d="M62.6323 63.8334C62.56 63.4492 61.9969 63.2288 61.3746 63.3413C60.7524 63.4537 60.3066 63.8564 60.379 64.2407C60.4514 64.625 61.0145 64.8453 61.6367 64.7329C62.259 64.6204 62.7047 64.2177 62.6323 63.8334Z" fill="#E9E8CB"/>
<path d="M52.5324 68.6074C52.4601 68.2231 51.897 68.0028 51.2747 68.1152C50.6525 68.2277 50.2067 68.6304 50.2791 69.0147C50.3515 69.3989 50.9146 69.6193 51.5368 69.5068C52.1591 69.3944 52.6048 68.9917 52.5324 68.6074Z" fill="#E9E8CB"/>
<path d="M49.1686 69.8523C49.1179 69.5833 48.7237 69.4291 48.2881 69.5078C47.8526 69.5865 47.5405 69.8684 47.5912 70.1374C47.6419 70.4064 48.036 70.5607 48.4716 70.4819C48.9072 70.4032 49.2192 70.1213 49.1686 69.8523Z" fill="#E9E8CB"/>
<path d="M42.487 69.2809C42.4363 69.0119 42.0422 68.8577 41.6066 68.9364C41.171 69.0151 40.8589 69.297 40.9096 69.566C40.9603 69.835 41.3545 69.9893 41.79 69.9106C42.2256 69.8318 42.5377 69.5499 42.487 69.2809Z" fill="#E9E8CB"/>
<path d="M58.6487 63.783C58.598 63.514 58.2038 63.3598 57.7682 63.4385C57.3327 63.5172 57.0206 63.7991 57.0713 64.0681C57.122 64.3371 57.5161 64.4914 57.9517 64.4127C58.3873 64.3339 58.6993 64.052 58.6487 63.783Z" fill="#E9E8CB"/>
<path d="M69.0405 61.6277C68.9898 61.3587 68.5956 61.2044 68.16 61.2832C67.7244 61.3619 67.4124 61.6438 67.4631 61.9128C67.5137 62.1818 67.9079 62.3361 68.3435 62.2573C68.7791 62.1786 69.0911 61.8967 69.0405 61.6277Z" fill="#E9E8CB"/>
<path d="M64.1706 61.9641C64.1336 61.7676 63.8457 61.6549 63.5276 61.7124C63.2095 61.7699 62.9816 61.9758 63.0186 62.1723C63.0556 62.3687 63.3435 62.4814 63.6616 62.4239C63.9797 62.3664 64.2076 62.1605 64.1706 61.9641Z" fill="#E9E8CB"/>
<path d="M64.6813 57.9253C65.4065 59.5955 62.1198 62.5637 57.3404 64.5549C52.561 66.5462 48.0987 66.8066 47.3735 65.1364C46.6484 63.4663 49.935 60.4981 54.7144 58.5068C59.4939 56.5155 63.9562 56.2552 64.6813 57.9253Z" fill="#FFB72B"/>
<path fill-rule="evenodd" clip-rule="evenodd" d="M64.4308 62.5601C62.8937 63.9483 60.6666 65.2982 58.1232 66.3578C55.5799 67.4175 53.0425 68.0527 50.9556 68.1744C49.9214 68.2348 48.8839 68.1762 47.9765 67.9027C47.0811 67.6328 46.0346 67.0581 45.5331 65.9032C45.0317 64.7483 45.335 63.6113 45.7576 62.7922C46.1859 61.9622 46.8625 61.1895 47.6242 60.5016C49.1613 59.1135 51.3884 57.7636 53.9317 56.7039C56.4751 55.6443 59.0125 55.0091 61.0994 54.8873C62.1336 54.827 63.1711 54.8855 64.0784 55.159C64.9739 55.4289 66.0204 56.0036 66.5218 57.1585C67.0233 58.3134 66.72 59.4505 66.2973 60.2696C65.8691 61.0995 65.1925 61.8722 64.4308 62.5601ZM57.3405 64.5549C62.1199 62.5636 65.4065 59.5955 64.6814 57.9253C63.9562 56.2552 59.4939 56.5155 54.7145 58.5068C49.9351 60.4981 46.6484 63.4663 47.3736 65.1364C48.0987 66.8065 52.561 66.5462 57.3405 64.5549Z" fill="#D89A24"/>
<path fill-rule="evenodd" clip-rule="evenodd" d="M63.5825 58.6966C63.5369 59.2358 63.0537 59.6366 62.5033 59.5919C61.0422 59.4733 59.1881 59.9572 58.445 60.2233C57.9263 60.4091 57.352 60.1477 57.1624 59.6396C56.9728 59.1315 57.2396 58.569 57.7583 58.3832C58.6111 58.0778 60.7851 57.4865 62.6685 57.6394C63.2189 57.6841 63.6281 58.1574 63.5825 58.6966Z" fill="#FFE58A"/>
</g>
<defs>
<clipPath id="clip0">
<rect width="96" height="94.0408" fill="white"/>
</clipPath>
</defs>
</svg>
