<svg width="131" height="25" viewBox="0 0 131 25" fill="none" xmlns="http://www.w3.org/2000/svg">
<path d="M1.264 24C1.05067 24 0.869334 23.9253 0.72 23.776C0.570667 23.6267 0.496 23.4453 0.496 23.232V2.4C0.496 2.16533 0.56 1.97333 0.688 1.824C0.837334 1.67467 1.02933 1.6 1.264 1.6H9.552C12.1547 1.6 14.192 2.208 15.664 3.424C17.1573 4.64 17.904 6.368 17.904 8.608C17.904 10.1653 17.52 11.4773 16.752 12.544C16.0053 13.5893 14.96 14.3467 13.616 14.816L18.288 22.976C18.352 23.104 18.384 23.2213 18.384 23.328C18.384 23.52 18.3093 23.68 18.16 23.808C18.032 23.936 17.8827 24 17.712 24H14.8C14.4587 24 14.192 23.9253 14 23.776C13.8293 23.6267 13.6693 23.4133 13.52 23.136L9.392 15.552H4.944V23.232C4.944 23.4453 4.86933 23.6267 4.72 23.776C4.592 23.9253 4.41067 24 4.176 24H1.264ZM9.456 11.936C10.736 11.936 11.696 11.648 12.336 11.072C12.9973 10.496 13.328 9.664 13.328 8.576C13.328 7.488 12.9973 6.64533 12.336 6.048C11.696 5.45067 10.736 5.152 9.456 5.152H4.944V11.936H9.456ZM28.6238 24.32C26.2558 24.32 24.3678 23.6373 22.9598 22.272C21.5731 20.8853 20.8371 18.944 20.7518 16.448L20.7198 15.648L20.7518 14.848C20.8584 12.416 21.6051 10.5067 22.9918 9.12C24.3998 7.73333 26.2771 7.04 28.6238 7.04C31.1411 7.04 33.0824 7.808 34.4478 9.344C35.8344 10.88 36.5278 12.928 36.5278 15.488V16.16C36.5278 16.3733 36.4531 16.5547 36.3038 16.704C36.1544 16.8533 35.9624 16.928 35.7278 16.928H25.1038V17.184C25.1464 18.3573 25.4664 19.3493 26.0638 20.16C26.6824 20.9493 27.5251 21.344 28.5918 21.344C29.8504 21.344 30.8638 20.8533 31.6318 19.872C31.8238 19.6373 31.9731 19.488 32.0798 19.424C32.2078 19.36 32.3891 19.328 32.6238 19.328H35.3758C35.5678 19.328 35.7278 19.392 35.8558 19.52C36.0051 19.6267 36.0798 19.7653 36.0798 19.936C36.0798 20.448 35.7704 21.056 35.1518 21.76C34.5544 22.4427 33.6904 23.04 32.5598 23.552C31.4291 24.064 30.1171 24.32 28.6238 24.32ZM32.1758 14.24V14.144C32.1758 12.8853 31.8558 11.872 31.2158 11.104C30.5971 10.336 29.7331 9.952 28.6238 9.952C27.5144 9.952 26.6504 10.336 26.0318 11.104C25.4131 11.872 25.1038 12.8853 25.1038 14.144V14.24H32.1758ZM47.1245 24.32C44.7778 24.32 42.9005 23.6693 41.4925 22.368C40.1058 21.0667 39.3698 19.264 39.2845 16.96L39.2525 15.68L39.2845 14.4C39.3698 12.096 40.1058 10.2933 41.4925 8.992C42.9005 7.69067 44.7778 7.04 47.1245 7.04C48.7885 7.04 50.1965 7.33867 51.3485 7.936C52.5218 8.53333 53.3858 9.26933 53.9405 10.144C54.5165 10.9973 54.8258 11.808 54.8685 12.576C54.8898 12.7893 54.8152 12.9707 54.6445 13.12C54.4952 13.2693 54.3138 13.344 54.1005 13.344H51.2845C51.0712 13.344 50.9005 13.3013 50.7725 13.216C50.6658 13.1093 50.5592 12.9387 50.4525 12.704C50.1325 11.872 49.7058 11.2747 49.1725 10.912C48.6605 10.5493 47.9992 10.368 47.1885 10.368C46.1005 10.368 45.2472 10.72 44.6285 11.424C44.0098 12.1067 43.6792 13.152 43.6365 14.56L43.6045 15.744L43.6365 16.8C43.7218 19.5947 44.9058 20.992 47.1885 20.992C48.0205 20.992 48.6925 20.8107 49.2045 20.448C49.7165 20.0853 50.1325 19.488 50.4525 18.656C50.5592 18.4213 50.6658 18.2613 50.7725 18.176C50.9005 18.0693 51.0712 18.016 51.2845 18.016H54.1005C54.3138 18.016 54.4952 18.0907 54.6445 18.24C54.8152 18.3893 54.8898 18.5707 54.8685 18.784C54.8258 19.5307 54.5272 20.3307 53.9725 21.184C53.4178 22.0373 52.5645 22.7733 51.4125 23.392C50.2605 24.0107 48.8312 24.32 47.1245 24.32ZM65.3738 24.32C63.0058 24.32 61.1178 23.6373 59.7098 22.272C58.3231 20.8853 57.5871 18.944 57.5018 16.448L57.4698 15.648L57.5018 14.848C57.6084 12.416 58.3551 10.5067 59.7418 9.12C61.1498 7.73333 63.0271 7.04 65.3738 7.04C67.8911 7.04 69.8324 7.808 71.1978 9.344C72.5844 10.88 73.2778 12.928 73.2778 15.488V16.16C73.2778 16.3733 73.2031 16.5547 73.0538 16.704C72.9044 16.8533 72.7124 16.928 72.4778 16.928H61.8538V17.184C61.8964 18.3573 62.2164 19.3493 62.8138 20.16C63.4324 20.9493 64.2751 21.344 65.3418 21.344C66.6004 21.344 67.6138 20.8533 68.3818 19.872C68.5738 19.6373 68.7231 19.488 68.8298 19.424C68.9578 19.36 69.1391 19.328 69.3738 19.328H72.1258C72.3178 19.328 72.4778 19.392 72.6058 19.52C72.7551 19.6267 72.8298 19.7653 72.8298 19.936C72.8298 20.448 72.5204 21.056 71.9018 21.76C71.3044 22.4427 70.4404 23.04 69.3098 23.552C68.1791 24.064 66.8671 24.32 65.3738 24.32ZM68.9258 14.24V14.144C68.9258 12.8853 68.6058 11.872 67.9658 11.104C67.3471 10.336 66.4831 9.952 65.3738 9.952C64.2644 9.952 63.4004 10.336 62.7818 11.104C62.1631 11.872 61.8538 12.8853 61.8538 14.144V14.24H68.9258ZM77.3145 4.608C77.1012 4.608 76.9198 4.53333 76.7705 4.384C76.6212 4.23467 76.5465 4.05333 76.5465 3.84V1.536C76.5465 1.32267 76.6212 1.14133 76.7705 0.991999C76.9198 0.842666 77.1012 0.768 77.3145 0.768H80.2265C80.4398 0.768 80.6212 0.842666 80.7705 0.991999C80.9412 1.14133 81.0265 1.32267 81.0265 1.536V3.84C81.0265 4.05333 80.9518 4.23467 80.8025 4.384C80.6532 4.53333 80.4612 4.608 80.2265 4.608H77.3145ZM77.4425 24C77.2292 24 77.0478 23.9253 76.8985 23.776C76.7492 23.6267 76.6745 23.4453 76.6745 23.232V8.128C76.6745 7.91467 76.7492 7.73333 76.8985 7.584C77.0478 7.43467 77.2292 7.36 77.4425 7.36H80.0985C80.3332 7.36 80.5145 7.43467 80.6425 7.584C80.7918 7.712 80.8665 7.89333 80.8665 8.128V23.232C80.8665 23.4453 80.7918 23.6267 80.6425 23.776C80.5145 23.9253 80.3332 24 80.0985 24H77.4425ZM92.632 24C90.6907 24 89.2293 23.4987 88.248 22.496C87.288 21.472 86.808 19.9787 86.808 18.016V10.752H84.28C84.0667 10.752 83.8853 10.6773 83.736 10.528C83.5867 10.3573 83.512 10.1653 83.512 9.952V8.128C83.512 7.91467 83.5867 7.73333 83.736 7.584C83.8853 7.43467 84.0667 7.36 84.28 7.36H86.808V2.048C86.808 1.81333 86.8827 1.632 87.032 1.504C87.1813 1.35467 87.3627 1.28 87.576 1.28H90.168C90.4027 1.28 90.584 1.35467 90.712 1.504C90.8613 1.632 90.936 1.81333 90.936 2.048V7.36H94.936C95.1707 7.36 95.352 7.43467 95.48 7.584C95.6293 7.712 95.704 7.89333 95.704 8.128V9.952C95.704 10.1867 95.6293 10.3787 95.48 10.528C95.3307 10.6773 95.1493 10.752 94.936 10.752H90.936V17.696C90.936 18.6133 91.096 19.3067 91.416 19.776C91.736 20.2453 92.2693 20.48 93.016 20.48H95.224C95.4373 20.48 95.6187 20.5547 95.768 20.704C95.9173 20.8533 95.992 21.0347 95.992 21.248V23.232C95.992 23.4453 95.9173 23.6267 95.768 23.776C95.64 23.9253 95.4587 24 95.224 24H92.632ZM103.663 24.32C102.575 24.32 101.572 24.1067 100.655 23.68C99.7588 23.232 99.0441 22.6347 98.5108 21.888C97.9988 21.1413 97.7428 20.32 97.7428 19.424C97.7428 17.9733 98.3294 16.8 99.5028 15.904C100.676 15.008 102.287 14.4 104.335 14.08L108.719 13.44V12.768C108.719 11.8293 108.484 11.1253 108.015 10.656C107.545 10.1867 106.788 9.952 105.743 9.952C105.039 9.952 104.463 10.0907 104.015 10.368C103.588 10.624 103.247 10.88 102.991 11.136C102.735 11.4133 102.564 11.5947 102.479 11.68C102.393 11.936 102.233 12.064 101.999 12.064H99.5348C99.3428 12.064 99.1721 12 99.0228 11.872C98.8948 11.744 98.8307 11.5733 98.8307 11.36C98.8521 10.8267 99.1081 10.2187 99.5988 9.536C100.111 8.85333 100.889 8.26667 101.935 7.776C102.98 7.28533 104.26 7.04 105.775 7.04C108.292 7.04 110.127 7.60533 111.279 8.736C112.431 9.86667 113.007 11.3493 113.007 13.184V23.232C113.007 23.4453 112.932 23.6267 112.783 23.776C112.655 23.9253 112.473 24 112.239 24H109.647C109.433 24 109.252 23.9253 109.103 23.776C108.953 23.6267 108.879 23.4453 108.879 23.232V21.984C108.409 22.6667 107.737 23.232 106.863 23.68C106.009 24.1067 104.943 24.32 103.663 24.32ZM104.751 21.28C105.924 21.28 106.884 20.896 107.631 20.128C108.377 19.36 108.751 18.24 108.751 16.768V16.096L105.551 16.608C104.313 16.8 103.375 17.1093 102.735 17.536C102.116 17.9627 101.807 18.4853 101.807 19.104C101.807 19.7867 102.095 20.32 102.671 20.704C103.247 21.088 103.94 21.28 104.751 21.28ZM123.416 24.32C121.816 24.32 120.472 24.0853 119.384 23.616C118.296 23.1253 117.485 22.56 116.952 21.92C116.44 21.2587 116.184 20.6933 116.184 20.224C116.184 20.0107 116.259 19.84 116.408 19.712C116.557 19.584 116.728 19.52 116.92 19.52H119.448C119.64 19.52 119.8 19.5947 119.928 19.744C120.013 19.808 120.237 20 120.6 20.32C120.963 20.6613 121.389 20.928 121.88 21.12C122.371 21.312 122.915 21.408 123.512 21.408C124.365 21.408 125.069 21.2373 125.624 20.896C126.179 20.5547 126.456 20.0853 126.456 19.488C126.456 19.04 126.328 18.6773 126.072 18.4C125.837 18.1227 125.4 17.8773 124.76 17.664C124.12 17.4293 123.171 17.184 121.912 16.928C120.099 16.544 118.755 15.9573 117.88 15.168C117.027 14.3787 116.6 13.3333 116.6 12.032C116.6 11.1787 116.856 10.3787 117.368 9.632C117.88 8.864 118.637 8.24533 119.64 7.776C120.664 7.28533 121.88 7.04 123.288 7.04C124.717 7.04 125.955 7.27467 127 7.744C128.045 8.192 128.835 8.736 129.368 9.376C129.923 9.99467 130.2 10.5493 130.2 11.04C130.2 11.232 130.125 11.4027 129.976 11.552C129.848 11.68 129.688 11.744 129.496 11.744H127.128C126.957 11.744 126.776 11.6693 126.584 11.52C126.435 11.4133 126.2 11.2107 125.88 10.912C125.56 10.6133 125.187 10.3787 124.76 10.208C124.333 10.0373 123.832 9.952 123.256 9.952C122.467 9.952 121.848 10.1227 121.4 10.464C120.973 10.8053 120.76 11.2533 120.76 11.808C120.76 12.2133 120.867 12.544 121.08 12.8C121.293 13.056 121.709 13.3013 122.328 13.536C122.947 13.7707 123.875 14.0053 125.112 14.24C127.16 14.6453 128.621 15.2747 129.496 16.128C130.392 16.9813 130.84 18.0267 130.84 19.264C130.84 20.7573 130.189 21.9733 128.888 22.912C127.587 23.8507 125.763 24.32 123.416 24.32Z" fill="#3F3E3E"/>
</svg>
